<svg width="48" height="48" viewBox="0 0 48 48" fill="none" xmlns="http://www.w3.org/2000/svg">
<rect width="48" height="48" rx="24" fill="black"/>
<path d="M17.0114 21.1268L24.0035 14.1378L30.9984 21.1325L35.0646 17.0636L24.0035 6L12.9424 17.0607L17.0114 21.1268Z" fill="#F3BA2F"/>
<path d="M6 24.0006L10.0675 19.9333L14.135 24.0006L10.0675 28.068L6 24.0006Z" fill="#F3BA2F"/>
<path d="M24.0035 33.8651L17.0114 26.8732L12.9367 30.9364L24.0035 42L35.0674 30.9336L30.9984 26.8704L24.0035 33.8651Z" fill="#F3BA2F"/>
<path d="M33.865 24.0017L37.9325 19.9343L42 24.0017L37.9325 28.069L33.865 24.0017Z" fill="#F3BA2F"/>
<path d="M24.0035 19.87L28.1293 23.9986H28.1322L24.0035 28.1301L19.8776 24.0071L19.8719 23.9986L20.5998 23.2707L20.9524 22.921L24.0035 19.87Z" fill="#F3BA2F"/>
</svg>
