<svg width="48" height="48" viewBox="0 0 48 48" fill="none" xmlns="http://www.w3.org/2000/svg">
<path d="M47.9998 23.8941C48.0207 28.6409 46.6336 33.2873 44.0138 37.2457C41.394 41.2041 37.6593 44.2967 33.2818 46.1325C28.9044 47.9683 24.0809 48.4648 19.4212 47.5592C14.7616 46.6536 10.4752 44.3866 7.10401 41.0448C3.73283 37.7031 1.42831 33.4367 0.481885 28.7852C-0.464542 24.1337 -0.010369 19.306 1.78697 14.9126C3.58431 10.5192 6.64409 6.7575 10.5794 4.10311C14.5146 1.44873 19.1487 0.0209127 23.8954 0.00022818C30.2604 -0.0275075 36.3756 2.47426 40.896 6.9552C45.4164 11.4361 47.9717 17.5292 47.9998 23.8941Z" fill="#8DC63F"/>
<path d="M46.1998 23.9028C46.2197 28.2928 44.9374 32.5902 42.5149 36.2515C40.0925 39.9127 36.6387 42.7734 32.5904 44.4717C28.5421 46.1701 24.0811 46.6298 19.7715 45.7928C15.4619 44.9557 11.4973 42.8595 8.3791 39.7693C5.26087 36.679 3.12904 32.7335 2.25321 28.4316C1.37739 24.1298 1.79689 19.6648 3.45869 15.6013C5.12048 11.5379 7.94992 8.0585 11.5892 5.60314C15.2285 3.14778 19.5141 1.82675 23.9042 1.8071C29.7906 1.78121 35.4464 4.09444 39.6275 8.23805C43.8086 12.3817 46.1727 18.0163 46.1998 23.9028Z" fill="#F9E988"/>
<path d="M24.4085 3.24545C25.8195 2.99501 27.2636 2.99501 28.6746 3.24545C30.0992 3.47104 31.4763 3.93243 32.7494 4.61067C34.0154 5.30632 35.1094 6.25067 36.198 7.13589C37.2867 8.02111 38.3702 8.92719 39.4015 9.9185C40.4543 10.8944 41.373 12.0055 42.1337 13.2228C42.9169 14.4306 43.5588 15.7243 44.0467 17.0785C44.9737 19.802 45.2954 22.7359 44.8328 25.5342H44.6954C44.2311 22.7602 43.6015 20.1168 42.6085 17.602C42.1424 16.3356 41.594 15.1011 40.9667 13.9063C40.3123 12.7114 39.5912 11.5542 38.8067 10.4402C38.009 9.31411 37.0313 8.327 35.9128 7.5185C34.7859 6.71502 33.4902 6.19502 32.2363 5.70111C30.9824 5.20719 29.7389 4.69589 28.4311 4.32024C27.1233 3.94458 25.7946 3.66284 24.4067 3.3898L24.4085 3.24545Z" fill="white"/>
<path d="M35.2589 16.068C33.6485 15.6019 31.9789 14.9411 30.2885 14.2732C30.1911 13.8489 29.8154 13.3202 29.0554 12.675C27.9511 11.7167 25.8763 11.7411 24.0832 12.1654C22.1041 11.6993 20.1493 11.5341 18.2728 11.9915C2.92497 16.2193 11.6276 26.5341 5.9928 36.9028C6.79454 38.6037 15.4363 48.5272 27.9406 45.8645C27.9406 45.8645 23.6641 35.588 33.3145 30.6558C41.1424 26.6402 46.798 19.2106 35.2589 16.068Z" fill="#8BC53F"/>
<path d="M37.1546 22.8176C37.1556 23.0016 37.102 23.1818 37.0006 23.3353C36.8993 23.4889 36.7546 23.609 36.585 23.6804C36.4154 23.7517 36.2284 23.7712 36.0477 23.7363C35.867 23.7014 35.7008 23.6137 35.5699 23.4844C35.4391 23.355 35.3495 23.1897 35.3126 23.0094C35.2757 22.8291 35.2931 22.6419 35.3625 22.4715C35.432 22.3011 35.5504 22.1551 35.7029 22.052C35.8553 21.949 36.0349 21.8934 36.2189 21.8923C36.4655 21.8914 36.7025 21.9883 36.8778 22.1617C37.0532 22.3351 37.1527 22.5709 37.1546 22.8176Z" fill="white"/>
<path d="M24.0833 12.1585C25.2015 12.2385 29.245 13.5498 30.2885 14.2663C29.4189 11.7446 26.4919 11.409 24.0833 12.1585Z" fill="#009345"/>
<path d="M25.1476 18.5358C25.1479 19.3848 24.8965 20.2148 24.4251 20.9209C23.9536 21.6269 23.2834 22.1774 22.4992 22.5025C21.7149 22.8276 20.8518 22.9129 20.0191 22.7475C19.1864 22.582 18.4214 22.1734 17.821 21.5732C17.2206 20.973 16.8116 20.2082 16.6458 19.3755C16.4801 18.5429 16.565 17.6798 16.8898 16.8954C17.2146 16.111 17.7647 15.4406 18.4706 14.9688C19.1765 14.4971 20.0064 14.2454 20.8554 14.2454C21.419 14.2451 21.9771 14.3559 22.4978 14.5715C23.0186 14.787 23.4917 15.103 23.8903 15.5014C24.2889 15.8998 24.6051 16.3729 24.8208 16.8935C25.0366 17.4142 25.1476 17.9722 25.1476 18.5358Z" fill="white"/>
<path d="M23.8746 18.5741C23.8746 19.1712 23.6975 19.7549 23.3658 20.2514C23.034 20.7479 22.5625 21.1349 22.0108 21.3634C21.4591 21.5919 20.8521 21.6517 20.2664 21.5352C19.6808 21.4187 19.1428 21.1311 18.7206 20.7089C18.2984 20.2867 18.0108 19.7487 17.8943 19.1631C17.7778 18.5774 17.8376 17.9704 18.0661 17.4187C18.2946 16.867 18.6816 16.3955 19.1781 16.0637C19.6746 15.732 20.2583 15.5549 20.8554 15.5549C21.6562 15.5549 22.4241 15.873 22.9903 16.4392C23.5565 17.0054 23.8746 17.7733 23.8746 18.5741Z" fill="#58595B"/>
<path d="M40.6311 24.7097C37.1528 27.1601 33.198 29.0193 27.5876 29.0193C24.9615 29.0193 24.4293 26.2367 22.6937 27.5967C21.798 28.3028 18.6398 29.8819 16.1337 29.7619C13.6276 29.6419 9.56498 28.1723 8.43281 22.8228C7.98411 28.1723 7.75455 32.1132 5.74585 36.6297C9.74585 43.0349 19.2832 47.9758 27.9406 45.8471C27.0102 39.3515 32.6867 32.9897 35.885 29.7341C37.1024 28.501 39.4154 26.4888 40.6311 24.7062V24.7097Z" fill="#8BC53F"/>
<path d="M40.4955 24.8698C39.4155 25.8542 38.1303 26.5829 36.8224 27.2264C35.4987 27.8549 34.1187 28.3574 32.7007 28.7272C31.2816 29.0942 29.8016 29.3707 28.3024 29.2351C26.8033 29.0994 25.2711 28.5898 24.2781 27.4664L24.325 27.4124C25.5424 28.202 26.9476 28.4803 28.3459 28.5203C29.7632 28.5634 31.1808 28.4467 32.572 28.1724C33.9773 27.8783 35.352 27.4532 36.6781 26.9029C38.005 26.355 39.3181 25.7203 40.4485 24.8159L40.4955 24.8698Z" fill="#58595B"/>
</svg>
