<svg width="48" height="48" viewBox="0 0 48 48" fill="none" xmlns="http://www.w3.org/2000/svg">
<rect width="48" height="48" rx="24" fill="#2B6AFF"/>
<path fill-rule="evenodd" clip-rule="evenodd" d="M29.9256 23.1289C30.2544 22.6147 30.5852 22.1 30.918 21.5847L30.9188 21.5823L30.9696 21.6004C30.9746 21.6351 30.9746 21.6698 30.9746 21.7037C30.9746 22.0359 30.9741 22.3681 30.9736 22.7002C30.9727 23.3644 30.9718 24.0285 30.9746 24.6929C30.9787 25.7754 31.0944 26.8423 31.517 27.8547C32.4994 30.2081 34.7647 31.4533 37.1921 30.9926C39.6479 30.526 41.4655 28.3279 41.8208 26.1033C42.1152 24.2594 42.0329 22.4097 41.676 20.5798C40.9439 16.8292 39.2028 13.6113 36.4284 10.9556C34.4224 9.03102 31.9931 7.59554 29.3324 6.76245C27.3409 6.12909 25.2986 5.94495 23.2189 6.01349C21.3175 6.0732 19.4396 6.44774 17.6627 7.12165C12.1489 9.20586 7.22244 14.3957 6.20836 21.2495C5.88226 23.4559 5.92885 25.6466 6.41966 27.8217C7.36552 32.0124 9.51845 35.4822 12.9142 38.1337C17.3698 41.6118 22.4161 42.7166 27.9573 41.5556C30.8506 40.9536 33.3937 39.625 35.6589 37.7571C36.1423 37.36 36.5865 36.9207 36.7529 36.2865C36.8901 35.7547 36.8643 35.265 36.3652 34.9C36.2029 34.7704 36.0474 34.6326 35.8994 34.4872C35.8326 34.4288 35.7513 34.3891 35.6639 34.3724C35.0184 34.2229 34.4777 34.4599 33.986 34.8365C33.8009 34.9785 33.6226 35.1295 33.4443 35.2806C33.2379 35.4554 33.0316 35.6302 32.8147 35.791C29.4822 38.2551 25.7495 39.1675 21.6516 38.5416C18.2716 38.0247 15.4789 36.3922 13.1222 33.9735C13.029 33.8786 13.029 33.815 13.0981 33.7134C13.2027 33.557 13.3016 33.3973 13.4005 33.2374C13.4415 33.1712 13.4826 33.1049 13.524 33.0388C14.3429 31.7359 15.1694 30.4379 15.996 29.1399C17.5231 26.7418 19.0501 24.3437 20.5285 21.915C20.5334 21.9069 20.5376 21.8979 20.5419 21.8886C20.559 21.8519 20.5777 21.8118 20.6442 21.8118C20.647 21.8664 20.6506 21.9209 20.6542 21.9754C20.6621 22.0956 20.6699 22.2155 20.6699 22.3354C20.6699 22.7325 20.6694 23.1303 20.6688 23.5285C20.6677 24.326 20.6666 25.1249 20.6699 25.9224C20.6867 26.9558 20.772 27.9869 20.9253 29.0091C21.1425 30.5879 23.0275 31.9504 24.8577 30.6086C25.455 30.1701 25.9117 29.6103 26.2935 28.9918C26.6019 28.4911 26.9091 27.9901 27.2162 27.4892C28.1111 26.0295 29.0052 24.5712 29.9256 23.1289ZM23.9484 24.9044V26.4006L24.0166 26.4097C24.0249 26.3972 24.0333 26.3847 24.0417 26.3721C24.0572 26.3491 24.0728 26.3259 24.0874 26.3024C24.7556 25.2471 25.4225 24.1915 26.0881 23.1356C26.3235 22.7624 26.5545 22.3862 26.7855 22.0101C27.3354 21.1144 27.8854 20.2187 28.4964 19.3627C28.983 18.6773 29.5529 18.063 30.3141 17.6625C30.8132 17.3999 31.3406 17.2116 31.9163 17.3528C33.1051 17.6452 33.7731 18.456 34.0276 19.5964C34.214 20.4358 34.1926 21.2954 34.1712 22.1515C34.1677 22.2925 34.1641 22.4334 34.1616 22.5741L34.1602 22.6384C34.1365 23.7821 34.1127 24.9248 34.3038 26.0596C34.4361 26.8457 34.8279 27.4667 35.5899 27.7656C36.3137 28.0497 36.9675 27.7962 37.5382 27.3403C38.2262 26.7887 38.5789 26.0356 38.6704 25.1785C38.7896 24.0102 38.7482 22.8312 38.5473 21.674C38.0165 18.5337 36.6814 15.7748 34.3878 13.5511C30.7001 9.9772 26.2769 8.56516 21.1749 9.49165C17.6435 10.1357 14.7594 11.9285 12.5133 14.6881C10.2247 17.4998 9.21065 20.7591 9.25724 24.3594C9.28097 26.081 9.61921 27.784 10.2555 29.3857C10.4036 29.7623 10.5608 30.1372 10.7438 30.4972C10.8977 30.8011 11.0441 30.7961 11.2205 30.5245C12.2024 29.011 13.1589 27.4811 14.1154 25.951C15.3024 24.0524 16.4895 22.1534 17.7259 20.2851C18.0167 19.8456 18.293 19.3969 18.5693 18.9481C18.9555 18.3211 19.3416 17.694 19.7673 17.0919C20.0715 16.6421 20.4982 16.2872 20.9977 16.0688C21.3513 15.9176 21.7425 15.8754 22.1206 15.9475C22.4987 16.0197 22.8463 16.2029 23.1182 16.4734C23.738 17.0977 23.9251 17.8945 23.9343 18.7269C23.9525 20.3333 23.9509 21.9391 23.9493 23.5453C23.9489 23.9983 23.9484 24.4513 23.9484 24.9044Z" fill="#FEFEFE"/>
</svg>
