<svg width="16" height="16" viewBox="0 0 16 16" fill="none" xmlns="http://www.w3.org/2000/svg">
<path d="M13.3335 14H2.66683C1.93045 14 1.3335 13.403 1.3335 12.6667V3.33333C1.3335 2.59695 1.93045 2 2.66683 2H13.3335C14.0699 2 14.6668 2.59695 14.6668 3.33333V12.6667C14.6668 13.403 14.0699 14 13.3335 14ZM2.66683 4.66667V12.6667H13.3335V4.66667H2.66683ZM9.80483 11.138L8.86283 10.196L10.3908 8.66667L8.86216 7.138L9.80483 6.19533L12.2762 8.66667L9.8055 11.1373L9.80483 11.138ZM6.1955 11.138L3.72416 8.66667L6.1955 6.19533L7.13816 7.138L5.6095 8.66667L7.1375 10.1953L6.1955 11.1373V11.138Z" fill="white"/>
</svg>
