<svg width="14" height="15" viewBox="0 0 14 15" fill="none" xmlns="http://www.w3.org/2000/svg">
<path d="M9.218 14.6161C8.864 14.6851 8.75 14.4671 8.75 14.2801V12.3591C8.75 11.7061 8.521 11.2801 8.269 11.0631C9.829 10.8901 11.467 10.2981 11.467 7.6091C11.467 6.8441 11.194 6.2201 10.746 5.7301C10.818 5.5531 11.058 4.8411 10.677 3.8771C10.677 3.8771 10.09 3.6891 8.754 4.5941C8.193 4.4401 7.595 4.3631 7 4.3601C6.405 4.3631 5.807 4.4401 5.247 4.5951C3.91 3.6901 3.322 3.8781 3.322 3.8781C2.943 4.8421 3.182 5.5541 3.255 5.7301C2.807 6.2201 2.533 6.8441 2.533 7.6091C2.533 10.2911 4.167 10.8911 5.722 11.0681C5.522 11.2431 5.341 11.5511 5.278 12.0041C4.878 12.1831 3.865 12.4921 3.241 11.4221C3.241 11.4221 2.871 10.7501 2.168 10.7001C2.168 10.7001 1.485 10.6911 2.12 11.1261C2.12 11.1261 2.58 11.3411 2.897 12.1501C2.897 12.1501 3.302 13.4001 5.25 12.9761V14.2791C5.25 14.4641 5.137 14.6811 4.788 14.6161C2.006 13.6911 0 11.0671 0 7.9751C0 4.1081 3.135 0.975098 7 0.975098C10.865 0.975098 14 4.1081 14 7.9751C14 11.0661 11.997 13.6901 9.218 14.6161Z" fill="white"/>
</svg>
