<svg width="48" height="48" viewBox="0 0 48 48" fill="none" xmlns="http://www.w3.org/2000/svg">
<rect width="48" height="48" rx="24" fill="#F5922F"/>
<path fill-rule="evenodd" clip-rule="evenodd" d="M35.7758 20.7341C35.1405 23.2222 33.3407 24.4862 30.3818 24.5202C33.5735 26.0574 34.7736 28.3757 33.9778 31.4776C33.4329 33.6117 32.3182 34.9343 30.6372 35.4463C29.4058 35.8051 27.7085 35.7494 25.5665 35.2966L24.6208 39L21.9127 38.2386L22.8429 34.5959L20.1347 33.8345L19.2045 37.4772L16.4964 36.7158L17.4266 33.0731L12 31.5475L12.67 28.9236L13.8326 29.2505C14.7114 29.4975 15.2834 29.5396 15.5563 29.3749C15.8293 29.2103 16.0749 28.6932 16.2986 27.8174L19.4261 15.5703C19.6497 14.6945 19.6834 14.1178 19.5255 13.832C19.3676 13.5462 18.8488 13.2816 17.9734 13.0355L16.8108 12.7086L17.4809 10.0848L22.9074 11.6105L23.8294 8L26.541 8.76236L25.619 12.3728L28.3272 13.1342L29.2492 9.52376L31.9573 10.2852L31.0225 13.9457C32.819 14.5887 34.1363 15.3575 34.9502 16.2607C35.9735 17.3913 36.2487 18.8824 35.7758 20.7341ZM26.7686 32.125C25.8879 32.4023 24.5426 32.2884 22.7269 31.7779L20.7984 31.2357L22.6442 24.0076L24.5112 24.5325C26.3474 25.0488 27.5899 25.651 28.2465 26.3375C28.9654 27.1105 29.157 28.1682 28.8138 29.5123C28.4487 30.9422 27.7684 31.8122 26.7686 32.125ZM26.7245 15.4921L24.9499 14.9931L23.3177 21.3847L24.9384 21.8404C26.5695 22.299 27.7932 22.3863 28.6088 22.1061C29.4243 21.8258 29.9879 21.0685 30.3019 19.8388C30.605 18.652 30.4712 17.7408 29.9014 17.1017C29.335 16.4636 28.2735 15.9276 26.7245 15.4921Z" fill="white"/>
</svg>
